<?xml version="1.0" encoding="UTF-8"?><svg id="Camada_1" xmlns="http://www.w3.org/2000/svg" viewBox="0 0 318.64 337.4"><rect y="18.77" width="318.64" height="318.64" rx="40" ry="40" fill="#fff"/><path d="M229.44,148.97c-21.14.17-41.68,12.19-55.81,26.4-1.81.75-3.66,3.09-5.05,4.36-.91,1.03-8.27,7.67-8.49,8.9.7,1.19,1.62,2.4,2.65,3.6-22.86-28.13-67.36-59.06-103.82-35.3l.17-.75c-90.33,57.51,18.78,174.89,100.05,74.07-.51-1.55-1.45-3.03-2.59-4.46,24.77,35.6,82.81,64.34,119.07,25.68-.44.02-.86.05-1.27.09,41.66-33.72,10.47-105.93-44.91-102.59ZM78.54,171.22c.3.42.99,1.23,1.62,2.07-.63-.84-1.31-1.65-1.62-2.07-1.76-.24-3.27-.87-4.68-1.67,1.45.74,3,1.32,4.68,1.67ZM67.7,165.27c.38.33.77.65,1.16.97-.8-.51-1.62-.98-2.49-1.37.43.17.88.3,1.33.4ZM66.1,164.75c-.98-.32-1.77-.67-2.49-1.45.79.59,1.62,1.08,2.49,1.45ZM60.3,160.09c-.64-.73-1.21-1.46-1.6-2.18.47.71,1.01,1.45,1.6,2.18ZM81.41,175.82c.03-.36-.17-.85-.49-1.39.32.54.52,1.04.49,1.39,25.04-3.89,45.58,16.93,59.42,34.15-63.97,82.71-125.62-11.6-59.42-34.15ZM147.87,216.38c-.81-.73-2.25-2.87-3.77-4.49,2.05,1.99,4.19,5.08,5.89,6.98-.78-.83-1.51-1.66-2.12-2.49ZM150.76,219.68c.25.24.49.41.67.68-.23-.23-.45-.46-.67-.68ZM169.71,199.89c-1.23-1.52-2.81-3.14-4.39-4.81,1.73,1.8,3.27,3.49,4.7,5.15-.12-.13-.23-.24-.32-.33ZM172.58,203.21c.96,1.13,2.01,2.34,2.97,3.33-.96-.99-2.01-2.2-2.97-3.33ZM262.8,180.19c.62-.14,1.15-.03,1.64.25-.81-.67-3.24.33-3.01-1.09.04.61.15.93,1.37.83ZM248.85,167.11c2.01,2.15,4.12,4.25,6.45,6.04-4.97-4.11-8.56-8.65-14.59-11.97,2.96,1.93,5.96,3.8,8.14,5.93ZM230.88,151.66c.57,1.46,1.5,2.77,2.65,3.99-1.16-1.22-2.09-2.53-2.65-3.99-.35-.14-1.46-.32-2.28-.63.81.31,1.93.49,2.28.63ZM228.43,149.95c-.17.05-.35.1-.49.13l.49-.13ZM227.69,150.14l.19-.05c-.11.03-.19.05-.19.05h0ZM228.21,150.86c-.36-.19-.59-.42-.52-.71-.07.29.16.52.52.71ZM197.69,168.31c1.82,1.28,3.01,1.77,3.93,2.01-.85-.23-2.41-.8-4.05-2.14.04.05.07.09.11.14ZM195.87,166.41c-.85-.64-1.51-.65-2.51-.5,1-.15,1.65-.15,2.51.5ZM191.86,186.66c-1.52-1.1-3.25-2.06-5.01-2.98,1.76.92,3.5,1.88,5.01,2.98ZM179.86,179.69c-.81-.59-1.55-1.22-2.18-1.92.63.7,1.37,1.33,2.18,1.92ZM254.02,237.05c.26.33.34.74.36,1.18-.01-.44-.1-.85-.36-1.18ZM256.38,250.3c1.63,1.33,2.9,2.21,4,2.77-1.23-.53-2.54-1.4-4-2.77ZM253,236.45c-27.94,19.98-58.56-6.53-74.96-27.89,5.31-3.74,13.23-12.97,17.89-17.31,37.89-40.07,96.24,4.54,57.07,45.2ZM265.88,253.49c1.51-.35,3.71-1.25,6.35-1.61-2.44.47-4.45,1.22-6.35,1.61ZM267.19,183.28c1.27,1.48,2.93,3.2,5.62,4.49-2.71-1.3-4.36-3.02-5.62-4.49ZM279.33,195.83c1.64.87,3.17,1.8,4.59,2.83-1.42-1.04-2.95-1.96-4.59-2.83ZM290.09,205.1c-1.14-1.73-2.41-3.2-3.81-4.49,1.4,1.29,2.67,2.75,3.81,4.49,0,0,.05-.03.11-.09l-.11.09ZM290.72,200.62c.08.57.27,1.38.41,2.11-.14-.73-.33-1.54-.41-2.11Z" fill="#ec7d71"/><path d="M40,18.77h238.64c22.08,0,40,17.92,40,40v42.47H0v-42.47C0,36.69,17.92,18.77,40,18.77Z" fill="#ec7d71"/><ellipse cx="75.97" cy="47.36" rx="22.6" ry="37.15" fill="#fff"/><ellipse cx="237.87" cy="47.36" rx="22.6" ry="37.15" fill="#fff"/><ellipse cx="75.97" cy="37.15" rx="22.6" ry="37.15" fill="#ec7d71"/><ellipse cx="237.87" cy="37.15" rx="22.6" ry="37.15" fill="#ec7d71"/></svg>